<svg width="94" height="98" viewBox="0 0 94 98" fill="none" xmlns="http://www.w3.org/2000/svg">
<path d="M89.996 91.6382C90.2915 91.6382 90.5804 91.7258 90.8261 91.89C91.0718 92.0542 91.2633 92.2875 91.3764 92.5605C91.4895 92.8335 91.519 93.1339 91.4614 93.4237C91.4037 93.7136 91.2614 93.9798 91.0525 94.1887C90.8435 94.3977 90.5773 94.54 90.2875 94.5976C89.9977 94.6552 89.6973 94.6257 89.4243 94.5126C89.1513 94.3995 88.9179 94.208 88.7537 93.9623C88.5896 93.7166 88.502 93.4278 88.502 93.1323C88.502 92.736 88.6594 92.356 88.9395 92.0758C89.2197 91.7956 89.5998 91.6382 89.996 91.6382Z" fill="#622DB4"/>
<path d="M73.4133 85.3499C73.7095 85.3467 73.9999 85.4315 74.2478 85.5937C74.4956 85.7559 74.6897 85.9881 74.8053 86.2608C74.9209 86.5335 74.9528 86.8344 74.8971 87.1253C74.8413 87.4162 74.7003 87.6839 74.492 87.8945C74.2837 88.1051 74.0175 88.2491 73.7273 88.3081C73.437 88.3671 73.1358 88.3384 72.8618 88.2259C72.5879 88.1133 72.3536 87.9218 72.1886 87.6758C72.0237 87.4297 71.9357 87.1402 71.9356 86.844C71.9335 86.6486 71.9701 86.4547 72.0434 86.2735C72.1167 86.0923 72.2252 85.9275 72.3626 85.7885C72.5 85.6496 72.6637 85.5393 72.844 85.464C73.0244 85.3887 73.2179 85.3499 73.4133 85.3499Z" fill="#622DB4"/>
<path d="M22.7148 85.3501C23.0103 85.3501 23.2991 85.4377 23.5448 85.6019C23.7905 85.7661 23.982 85.9994 24.0951 86.2724C24.2082 86.5454 24.2378 86.8458 24.1801 87.1357C24.1225 87.4255 23.9802 87.6917 23.7712 87.9007C23.5623 88.1096 23.2961 88.2519 23.0063 88.3095C22.7164 88.3672 22.416 88.3376 22.143 88.2245C21.87 88.1114 21.6367 87.9199 21.4725 87.6742C21.3083 87.4285 21.2207 87.1397 21.2207 86.8442C21.2207 86.4479 21.3781 86.0679 21.6583 85.7877C21.9385 85.5075 22.3185 85.3501 22.7148 85.3501Z" fill="#622DB4"/>
<path d="M10.7776 85.35C9.76123 85.35 8.76768 85.6515 7.92259 86.2161C7.07749 86.7808 6.41881 87.5834 6.02985 88.5224C5.6409 89.4614 5.53913 90.4947 5.73742 91.4916C5.9357 92.4884 6.42514 93.4041 7.14384 94.1228C7.86253 94.8415 8.77821 95.3309 9.77507 95.5292C10.7719 95.7275 11.8052 95.6257 12.7442 95.2368C13.6832 94.8478 14.4858 94.1891 15.0505 93.344C15.6152 92.4989 15.9166 91.5054 15.9166 90.489C15.9277 89.8111 15.8023 89.1379 15.548 88.5094C15.2937 87.8809 14.9155 87.3099 14.4361 86.8305C13.9567 86.3511 13.3858 85.9729 12.7573 85.7186C12.1288 85.4643 11.4555 85.3389 10.7776 85.35ZM10.7776 93.5592C10.1534 93.5592 9.54334 93.3739 9.0246 93.0268C8.50585 92.6797 8.10182 92.1864 7.86372 91.6094C7.62561 91.0324 7.56415 90.3978 7.68712 89.7858C7.81009 89.1739 8.11196 88.6123 8.55446 88.1721C8.99697 87.7319 9.5602 87.4329 10.1728 87.3132C10.7853 87.1934 11.4197 87.2582 11.9954 87.4993C12.5711 87.7404 13.0623 88.147 13.4067 88.6675C13.7511 89.1881 13.9332 89.7992 13.93 90.4233C13.9455 90.8461 13.8753 91.2676 13.7236 91.6626C13.5719 92.0575 13.3419 92.4177 13.0474 92.7214C12.7529 93.0251 12.4 93.2661 12.0099 93.4298C11.6198 93.5935 11.2007 93.6767 10.7776 93.6742V93.5592Z" fill="#622DB4"/>
<path d="M87.3367 14.8661H66.7973V12.7153C66.7783 12.456 66.6667 12.2121 66.4828 12.0283C66.299 11.8444 66.0551 11.7328 65.7958 11.7138H56.5194V9.61224C56.4187 7.21737 55.3965 4.95405 53.6663 3.29512C51.9361 1.63619 49.6318 0.709961 47.2348 0.709961C44.8378 0.709961 42.5336 1.63619 40.8034 3.29512C39.0732 4.95405 38.051 7.21737 37.9503 9.61224V11.763H28.6739C28.4163 11.7825 28.1745 11.8947 27.9933 12.0788C27.8122 12.263 27.704 12.5067 27.6888 12.7646V14.8661H6.80464C5.13254 14.8661 3.52894 15.5303 2.34659 16.7127C1.16424 17.895 0.5 19.4987 0.5 21.1707V76.8454C0.499997 77.6726 0.663191 78.4916 0.98023 79.2556C1.29727 80.0196 1.76193 80.7135 2.34759 81.2977C2.93325 81.8818 3.62838 82.3446 4.3932 82.6597C5.15802 82.9747 5.97748 83.1358 6.80464 83.1336H39.7727V89.4383H29.3471C28.7807 89.4026 28.213 89.4834 27.6791 89.6756C27.1452 89.8678 26.6563 90.1674 26.2426 90.5558C25.8289 90.9443 25.4992 91.4134 25.2738 91.9342C25.0485 92.455 24.9322 93.0164 24.9322 93.5839C24.9322 94.1514 25.0485 94.7128 25.2738 95.2336C25.4992 95.7544 25.8289 96.2235 26.2426 96.612C26.6563 97.0005 27.1452 97.3 27.6791 97.4922C28.213 97.6845 28.7807 97.7652 29.3471 97.7295H64.6301C65.1964 97.7652 65.7641 97.6845 66.298 97.4922C66.832 97.3 67.3208 97.0005 67.7345 96.612C68.1482 96.2235 68.4779 95.7544 68.7033 95.2336C68.9287 94.7128 69.0449 94.1514 69.0449 93.5839C69.0449 93.0164 68.9287 92.455 68.7033 91.9342C68.4779 91.4134 68.1482 90.9443 67.7345 90.5558C67.3208 90.1674 66.832 89.8678 66.298 89.6756C65.7641 89.4834 65.1964 89.4026 64.6301 89.4383H54.2209V83.1336H87.1889C88.0161 83.1358 88.8355 82.9747 89.6004 82.6597C90.3652 82.3446 91.0603 81.8818 91.646 81.2977C92.2316 80.7135 92.6963 80.0196 93.0133 79.2556C93.3304 78.4916 93.4936 77.6726 93.4936 76.8454V21.22C93.5317 20.3921 93.4001 19.5652 93.1067 18.7901C92.8134 18.015 92.3646 17.3081 91.7878 16.7129C91.2111 16.1177 90.5187 15.6469 89.7532 15.3293C88.9877 15.0116 88.1653 14.854 87.3367 14.8661ZM85.4157 41.7594H74.908C74.6665 41.7905 74.4447 41.9085 74.2839 42.0913C74.1231 42.2741 74.0344 42.5092 74.0344 42.7527C74.0344 42.9961 74.1231 43.2313 74.2839 43.4141C74.4447 43.5969 74.6665 43.7149 74.908 43.746H85.4157V45.8968H74.908C74.6424 45.8968 74.3876 46.0023 74.1998 46.1901C74.012 46.3779 73.9065 46.6327 73.9065 46.8983C73.9065 47.1639 74.012 47.4187 74.1998 47.6065C74.3876 47.7943 74.6424 47.8998 74.908 47.8998H85.4157V50.0506H74.908C74.6665 50.0817 74.4447 50.1997 74.2839 50.3825C74.1231 50.5654 74.0344 50.8005 74.0344 51.044C74.0344 51.2874 74.1231 51.5225 74.2839 51.7053C74.4447 51.8882 74.6665 52.0062 74.908 52.0373H85.4157V54.2702H74.908C74.6665 54.3013 74.4447 54.4193 74.2839 54.6021C74.1231 54.7849 74.0344 55.02 74.0344 55.2635C74.0344 55.5069 74.1231 55.7421 74.2839 55.9249C74.4447 56.1077 74.6665 56.2257 74.908 56.2568H85.4157V58.4076H74.908C74.6424 58.4076 74.3876 58.5131 74.1998 58.7009C74.012 58.8888 73.9065 59.1435 73.9065 59.4091C73.9065 59.6747 74.012 59.9295 74.1998 60.1173C74.3876 60.3051 74.6424 60.4106 74.908 60.4106H85.4157V62.4793H74.908C74.6665 62.5104 74.4447 62.6284 74.2839 62.8113C74.1231 62.9941 74.0344 63.2292 74.0344 63.4726C74.0344 63.7161 74.1231 63.9512 74.2839 64.134C74.4447 64.3169 74.6665 64.4349 74.908 64.466H85.4157V68.6034H8.79127V64.466H19.2333C19.4748 64.4349 19.6967 64.3169 19.8574 64.134C20.0182 63.9512 20.1069 63.7161 20.1069 63.4726C20.1069 63.2292 20.0182 62.9941 19.8574 62.8113C19.6967 62.6284 19.4748 62.5104 19.2333 62.4793H8.79127V60.3285H19.2333C19.499 60.3285 19.7537 60.223 19.9415 60.0352C20.1294 59.8474 20.2349 59.5926 20.2349 59.327C20.2349 59.0614 20.1294 58.8067 19.9415 58.6188C19.7537 58.431 19.499 58.3255 19.2333 58.3255H8.79127V56.1747H19.2333C19.4748 56.1436 19.6967 56.0256 19.8574 55.8428C20.0182 55.66 20.1069 55.4248 20.1069 55.1814C20.1069 54.9379 20.0182 54.7028 19.8574 54.52C19.6967 54.3372 19.4748 54.2192 19.2333 54.1881H8.79127V52.0373H19.2333C19.4748 52.0062 19.6967 51.8882 19.8574 51.7053C20.0182 51.5225 20.1069 51.2874 20.1069 51.044C20.1069 50.8005 20.0182 50.5654 19.8574 50.3825C19.6967 50.1997 19.4748 50.0817 19.2333 50.0506H8.79127V47.8998H19.2333C19.499 47.8998 19.7537 47.7943 19.9415 47.6065C20.1294 47.4187 20.2349 47.1639 20.2349 46.8983C20.2349 46.6327 20.1294 46.3779 19.9415 46.1901C19.7537 46.0023 19.499 45.8968 19.2333 45.8968H8.79127V43.746H19.2333C19.4748 43.7149 19.6967 43.5969 19.8574 43.4141C20.0182 43.2313 20.1069 42.9961 20.1069 42.7527C20.1069 42.5092 20.0182 42.2741 19.8574 42.0913C19.6967 41.9085 19.4748 41.7905 19.2333 41.7594H8.79127V23.2066H27.5082V45.2401C27.5082 47.352 28.3471 49.3774 29.8405 50.8707C31.3338 52.364 33.3592 53.203 35.4711 53.203H58.6702C60.7821 53.203 62.8075 52.364 64.3008 50.8707C65.7942 49.3774 66.6331 47.352 66.6331 45.2401V23.2066H85.4157V41.7594ZM29.5933 38.7712H64.8928V45.2401C64.895 46.0247 64.7418 46.802 64.442 47.5272C64.1422 48.2523 63.7018 48.9109 63.1462 49.465C62.5906 50.0191 61.9308 50.4577 61.2048 50.7554C60.4789 51.0532 59.7011 51.2043 58.9165 51.1999H35.4711C33.902 51.1869 32.4021 50.5522 31.3002 49.435C30.1984 48.3178 29.5846 46.8092 29.5933 45.2401V38.7712ZM64.7122 36.6204H29.5933V33.4681H64.8928V36.6204H64.7122ZM39.7727 9.77641C39.8617 7.90074 40.6694 6.13136 42.0283 4.83542C43.3872 3.53948 45.1929 2.81649 47.0707 2.81649C48.9484 2.81649 50.7541 3.53948 52.113 4.83542C53.4719 6.13136 54.2796 7.90074 54.3686 9.77641V11.9272H39.7727V9.77641ZM29.5933 13.9138H37.8025V18.2319C36.9515 18.4718 36.216 19.0115 35.7319 19.7514C35.2479 20.4913 35.0479 21.3814 35.169 22.2572C35.2901 23.1331 35.724 23.9355 36.3907 24.5163C37.0573 25.0972 37.9116 25.4171 38.7958 25.4171C39.68 25.4171 40.5343 25.0972 41.2009 24.5163C41.8676 23.9355 42.3015 23.1331 42.4226 22.2572C42.5437 21.3814 42.3437 20.4913 41.8597 19.7514C41.3756 19.0115 40.6402 18.4718 39.7891 18.2319V13.9138H54.385V18.2319C53.631 18.457 52.9676 18.9149 52.4898 19.5402C52.012 20.1654 51.7444 20.9259 51.7253 21.7126C51.7208 22.3913 51.906 23.0578 52.2599 23.637C52.6138 24.2161 53.1224 24.685 53.7284 24.9907C54.3345 25.2964 55.0138 25.4268 55.6899 25.3672C56.366 25.3077 57.0121 25.0605 57.5553 24.6536C58.0986 24.2466 58.5174 23.6961 58.7646 23.0639C59.0118 22.4318 59.0776 21.7432 58.9546 21.0757C58.8315 20.4082 58.5245 19.7883 58.0682 19.2859C57.6119 18.7834 57.0243 18.4184 56.3717 18.2319V13.9138H64.5808V31.4815H29.5933V13.9138ZM38.8697 20.0543C39.1652 20.0543 39.454 20.1419 39.6997 20.3061C39.9454 20.4703 40.137 20.7036 40.25 20.9766C40.3631 21.2496 40.3927 21.55 40.335 21.8398C40.2774 22.1297 40.1351 22.3959 39.9262 22.6048C39.7172 22.8138 39.451 22.9561 39.1612 23.0137C38.8713 23.0714 38.5709 23.0418 38.2979 22.9287C38.0249 22.8156 37.7916 22.6241 37.6274 22.3784C37.4632 22.1327 37.3756 21.8439 37.3756 21.5484C37.3751 21.166 37.5211 20.7979 37.7838 20.5199C38.0465 20.242 38.4058 20.0753 38.7876 20.0543H38.8697ZM55.4358 20.0543C55.8321 20.0543 56.2121 20.2117 56.4923 20.4919C56.7725 20.7721 56.9299 21.1521 56.9299 21.5484C56.9299 21.9446 56.7725 22.3247 56.4923 22.6048C56.2121 22.885 55.8321 23.0424 55.4358 23.0424C55.0396 23.0424 54.6595 22.885 54.3793 22.6048C54.0991 22.3247 53.9417 21.9446 53.9417 21.5484C53.9417 21.1521 54.0991 20.7721 54.3793 20.4919C54.6595 20.2117 55.0396 20.0543 55.4358 20.0543ZM66.9287 93.625C66.9161 94.1958 66.6838 94.7398 66.28 95.1435C65.8763 95.5473 65.3323 95.7796 64.7614 95.7922H29.5933C29.294 95.8183 28.9924 95.7819 28.7079 95.6853C28.4234 95.5886 28.1621 95.4339 27.9406 95.2309C27.719 95.0278 27.5422 94.7809 27.4212 94.5059C27.3001 94.2309 27.2376 93.9337 27.2376 93.6332C27.2376 93.3327 27.3001 93.0354 27.4212 92.7604C27.5422 92.4854 27.719 92.2385 27.9406 92.0355C28.1621 91.8325 28.4234 91.6777 28.7079 91.5811C28.9924 91.4844 29.294 91.448 29.5933 91.4742H64.8928C65.4251 91.5427 65.9136 91.8049 66.2649 92.2107C66.6162 92.6165 66.8057 93.1375 66.7973 93.6742L66.9287 93.625ZM52.3328 89.4875H41.9071V83.1829H52.3328V89.4875ZM91.7368 76.8946C91.7156 78.0317 91.2534 79.116 90.4477 79.9187C89.642 80.7213 88.5559 81.1794 87.4188 81.1963H6.96884C5.83299 81.1753 4.74924 80.7159 3.94441 79.9142C3.13958 79.1124 2.67604 78.0304 2.6508 76.8946V21.22C2.67185 20.0814 3.13355 18.9953 3.93882 18.19C4.74409 17.3847 5.83021 16.923 6.96884 16.902H27.5082V21.0394H7.78975C7.53215 21.0588 7.29034 21.171 7.10918 21.3552C6.92802 21.5394 6.81981 21.783 6.80464 22.0409V69.7691C6.82361 70.0241 6.9335 70.2638 7.11429 70.4445C7.29508 70.6253 7.53478 70.7352 7.78975 70.7542H86.5158C86.7707 70.7352 87.0104 70.6253 87.1912 70.4445C87.372 70.2638 87.4819 70.0241 87.5009 69.7691V22.1559C87.4819 21.9009 87.372 21.6612 87.1912 21.4804C87.0104 21.2996 86.7707 21.1897 86.5158 21.1707H66.8137V17.0169H87.3531C88.5071 17.0385 89.6061 17.5144 90.4115 18.3412C91.2168 19.1681 91.6636 20.2792 91.6547 21.4334L91.7368 76.8946Z" fill="#622DB4"/>
<path d="M84.3655 10.7779C85.3819 10.7779 86.3755 10.4765 87.2206 9.91183C88.0657 9.34716 88.7243 8.54458 89.1133 7.60556C89.5022 6.66654 89.604 5.63325 89.4057 4.63639C89.2074 3.63954 88.718 2.72388 87.9993 2.00519C87.2806 1.28649 86.3649 0.797033 85.3681 0.598745C84.3712 0.400458 83.3379 0.502228 82.3989 0.891182C81.4599 1.28014 80.6573 1.93882 80.0926 2.78392C79.528 3.62901 79.2266 4.62258 79.2266 5.63897C79.2352 6.99924 79.7794 8.30135 80.7413 9.26323C81.7031 10.2251 83.0052 10.7693 84.3655 10.7779ZM84.3655 2.56872C85.1987 2.57306 85.9963 2.90711 86.5839 3.49781C87.1716 4.08852 87.5014 4.88783 87.5014 5.72104C87.5174 6.13791 87.4474 6.55363 87.2957 6.94224C87.144 7.33086 86.9138 7.68403 86.6196 7.97979C86.3254 8.27555 85.9734 8.50753 85.5856 8.66127C85.1978 8.815 84.7825 8.88722 84.3655 8.87338C83.5295 8.87338 82.7277 8.54125 82.1365 7.95008C81.5453 7.3589 81.2132 6.55709 81.2132 5.72104C81.2132 4.88499 81.5453 4.0832 82.1365 3.49202C82.7277 2.90085 83.5295 2.56872 84.3655 2.56872Z" fill="#622DB4"/>
<path d="M16.0811 12.7645C16.9033 12.7677 17.708 12.5269 18.3933 12.0724C19.0786 11.618 19.6135 10.9704 19.9304 10.2116C20.2473 9.45291 20.3319 8.61718 20.1735 7.81034C20.0151 7.00349 19.6208 6.26182 19.0405 5.67925C18.4603 5.09668 17.7201 4.69943 16.9139 4.53781C16.1077 4.3762 15.2717 4.4575 14.5117 4.7714C13.7517 5.08531 13.102 5.61771 12.6449 6.30115C12.1877 6.9846 11.9437 7.78836 11.9437 8.61061C11.9371 9.15654 12.0395 9.69829 12.2449 10.2041C12.4503 10.71 12.7545 11.1698 13.1398 11.5566C13.5251 11.9434 13.9837 12.2495 14.4888 12.4569C14.9938 12.6643 15.5351 12.7689 16.0811 12.7645ZM16.0811 6.62398C16.6212 6.67112 17.124 6.919 17.4903 7.31868C17.8567 7.71837 18.0599 8.24084 18.0599 8.783C18.0599 9.32516 17.8567 9.84763 17.4903 10.2473C17.124 10.647 16.6212 10.8949 16.0811 10.942C15.496 10.8927 14.9506 10.626 14.5524 10.1944C14.1543 9.76288 13.9323 9.19778 13.9303 8.61061C13.9429 8.341 14.0086 8.07652 14.1236 7.83233C14.2386 7.58814 14.4006 7.36902 14.6004 7.18753C14.8002 7.00605 15.0338 6.86576 15.2879 6.77469C15.542 6.68363 15.8115 6.64357 16.0811 6.65682V6.62398Z" fill="#622DB4"/>
<path d="M70.4433 1.48511C70.7388 1.48511 71.0277 1.57271 71.2734 1.73688C71.5191 1.90105 71.7106 2.13441 71.8236 2.40741C71.9367 2.68042 71.9663 2.98082 71.9087 3.27064C71.851 3.56046 71.7087 3.82669 71.4998 4.03564C71.2908 4.24459 71.0246 4.38688 70.7348 4.44452C70.4449 4.50217 70.1445 4.47258 69.8715 4.3595C69.5985 4.24641 69.3652 4.05492 69.201 3.80922C69.0369 3.56352 68.9492 3.27466 68.9492 2.97916C68.9492 2.58291 69.1066 2.20289 69.3868 1.9227C69.667 1.64251 70.047 1.48511 70.4433 1.48511Z" fill="#622DB4"/>
<path d="M29.0019 2.48657C29.2974 2.48657 29.5863 2.57418 29.832 2.73835C30.0776 2.90252 30.2691 3.13587 30.3822 3.40888C30.4953 3.68188 30.5249 3.98229 30.4673 4.27211C30.4096 4.56193 30.2673 4.82816 30.0583 5.03711C29.8494 5.24606 29.5832 5.38834 29.2934 5.44599C29.0036 5.50364 28.7031 5.47404 28.4301 5.36096C28.1571 5.24788 27.9238 5.05638 27.7596 4.81069C27.5954 4.56499 27.5078 4.27612 27.5078 3.98062C27.5078 3.58437 27.6652 3.20436 27.9454 2.92416C28.2256 2.64397 28.6056 2.48657 29.0019 2.48657Z" fill="#622DB4"/>
<path d="M4.14456 8.79135C4.44075 8.79137 4.73026 8.87942 4.9763 9.04433C5.22234 9.20924 5.41381 9.44355 5.5264 9.71751C5.63898 9.99148 5.66759 10.2927 5.6086 10.583C5.5496 10.8732 5.40568 11.1394 5.19508 11.3477C4.98449 11.556 4.71674 11.697 4.42585 11.7527C4.13495 11.8085 3.83404 11.7766 3.56134 11.661C3.28863 11.5454 3.05645 11.3513 2.89427 11.1035C2.73209 10.8556 2.64723 10.5652 2.65048 10.269C2.65047 10.0736 2.68924 9.88006 2.76452 9.6997C2.8398 9.51935 2.95012 9.35572 3.08907 9.21829C3.22803 9.08086 3.39286 8.97236 3.57404 8.89908C3.75521 8.82579 3.94913 8.78918 4.14456 8.79135Z" fill="#622DB4"/>
</svg>
