<svg width="26" height="26" viewBox="0 0 26 26" fill="none" xmlns="http://www.w3.org/2000/svg">
<mask id="mask0_360_4770" style="mask-type:alpha" maskUnits="userSpaceOnUse" x="0" y="0" width="26" height="26">
<rect width="26" height="26" fill="#D9D9D9"/>
</mask>
<g mask="url(#mask0_360_4770)">
<path d="M4.66738 22.2083C4.12012 22.2083 3.6569 22.0188 3.27773 21.6396C2.89857 21.2604 2.70898 20.7972 2.70898 20.2499V9.00006C2.70898 8.4528 2.89857 7.98958 3.27773 7.61042C3.6569 7.23125 4.12012 7.04167 4.66738 7.04167H9.20898V5.2084C9.20898 4.66113 9.39857 4.19792 9.77773 3.81875C10.1569 3.43958 10.6201 3.25 11.1674 3.25H14.8339C15.3812 3.25 15.8444 3.43958 16.2236 3.81875C16.6027 4.19792 16.7923 4.66113 16.7923 5.2084V7.04167H21.3339C21.8812 7.04167 22.3444 7.23125 22.7236 7.61042C23.1027 7.98958 23.2923 8.4528 23.2923 9.00006V20.2499C23.2923 20.7972 23.1027 21.2604 22.7236 21.6396C22.3444 22.0188 21.8812 22.2083 21.3339 22.2083H4.66738ZM10.834 7.04167H15.1673V5.2084C15.1673 5.12498 15.1326 5.0486 15.063 4.97927C14.9937 4.90976 14.9173 4.875 14.8339 4.875H11.1674C11.084 4.875 11.0076 4.90976 10.9383 4.97927C10.8687 5.0486 10.834 5.12498 10.834 5.2084V7.04167ZM21.6673 15.9792H15.709V17.875H10.2923V15.9792H4.33398V20.2499C4.33398 20.3334 4.36874 20.4097 4.43826 20.4791C4.50759 20.5486 4.58396 20.5833 4.66738 20.5833H21.3339C21.4173 20.5833 21.4937 20.5486 21.563 20.4791C21.6326 20.4097 21.6673 20.3334 21.6673 20.2499V15.9792ZM11.9173 16.25H14.084V14.0833H11.9173V16.25ZM4.33398 14.3542H10.2923V12.4583H15.709V14.3542H21.6673V9.00006C21.6673 8.91665 21.6326 8.84027 21.563 8.77094C21.4937 8.70142 21.4173 8.66667 21.3339 8.66667H4.66738C4.58396 8.66667 4.50759 8.70142 4.43826 8.77094C4.36874 8.84027 4.33398 8.91665 4.33398 9.00006V14.3542Z" fill="#512DB4" fill-opacity="0.35"/>
</g>
</svg>
