<svg width="26" height="26" viewBox="0 0 26 26" fill="none" xmlns="http://www.w3.org/2000/svg">
<mask id="mask0_360_4788" style="mask-type:alpha" maskUnits="userSpaceOnUse" x="0" y="0" width="26" height="26">
<rect width="26" height="26" fill="#D9D9D9"/>
</mask>
<g mask="url(#mask0_360_4788)">
<path d="M8.66602 15.1667H17.3327V14.5708C17.3327 13.7764 16.9355 13.1354 16.141 12.6479C15.3466 12.1604 14.2993 11.9167 12.9993 11.9167C11.6993 11.9167 10.6521 12.1604 9.85768 12.6479C9.06324 13.1354 8.66602 13.7764 8.66602 14.5708V15.1667ZM12.9993 10.8333C13.5952 10.8333 14.1053 10.6212 14.5296 10.1969C14.9539 9.77256 15.166 9.26249 15.166 8.66666C15.166 8.07082 14.9539 7.56075 14.5296 7.13645C14.1053 6.71214 13.5952 6.49999 12.9993 6.49999C12.4035 6.49999 11.8934 6.71214 11.4691 7.13645C11.0448 7.56075 10.8327 8.07082 10.8327 8.66666C10.8327 9.26249 11.0448 9.77256 11.4691 10.1969C11.8934 10.6212 12.4035 10.8333 12.9993 10.8333ZM2.16602 23.8333V4.33332C2.16602 3.73749 2.37817 3.22742 2.80247 2.80311C3.22678 2.37881 3.73685 2.16666 4.33268 2.16666H21.666C22.2618 2.16666 22.7719 2.37881 23.1962 2.80311C23.6205 3.22742 23.8327 3.73749 23.8327 4.33332V17.3333C23.8327 17.9292 23.6205 18.4392 23.1962 18.8635C22.7719 19.2878 22.2618 19.5 21.666 19.5H6.49935L2.16602 23.8333ZM5.57852 17.3333H21.666V4.33332H4.33268V18.5521L5.57852 17.3333Z" fill="#454545" fill-opacity="0.35"/>
</g>
</svg>
