<svg width="26" height="26" viewBox="0 0 26 26" fill="none" xmlns="http://www.w3.org/2000/svg">
<mask id="mask0_360_598" style="mask-type:alpha" maskUnits="userSpaceOnUse" x="0" y="0" width="26" height="26">
<rect width="26" height="26" fill="#D9D9D9"/>
</mask>
<g mask="url(#mask0_360_598)">
<path d="M8.66602 15.166H17.3327V14.5702C17.3327 13.7757 16.9355 13.1348 16.141 12.6473C15.3466 12.1598 14.2993 11.916 12.9993 11.916C11.6993 11.916 10.6521 12.1598 9.85768 12.6473C9.06324 13.1348 8.66602 13.7757 8.66602 14.5702V15.166ZM12.9993 10.8327C13.5952 10.8327 14.1053 10.6205 14.5296 10.1962C14.9539 9.77192 15.166 9.26185 15.166 8.66602C15.166 8.07018 14.9539 7.56011 14.5296 7.13581C14.1053 6.7115 13.5952 6.49935 12.9993 6.49935C12.4035 6.49935 11.8934 6.7115 11.4691 7.13581C11.0448 7.56011 10.8327 8.07018 10.8327 8.66602C10.8327 9.26185 11.0448 9.77192 11.4691 10.1962C11.8934 10.6205 12.4035 10.8327 12.9993 10.8327ZM2.16602 23.8327V4.33268C2.16602 3.73685 2.37817 3.22678 2.80247 2.80247C3.22678 2.37817 3.73685 2.16602 4.33268 2.16602H21.666C22.2618 2.16602 22.7719 2.37817 23.1962 2.80247C23.6205 3.22678 23.8327 3.73685 23.8327 4.33268V17.3327C23.8327 17.9285 23.6205 18.4386 23.1962 18.8629C22.7719 19.2872 22.2618 19.4993 21.666 19.4993H6.49935L2.16602 23.8327ZM5.57852 17.3327H21.666V4.33268H4.33268V18.5514L5.57852 17.3327Z" fill="#512DB4"/>
</g>
</svg>
