<svg width="26" height="26" viewBox="0 0 26 26" fill="none" xmlns="http://www.w3.org/2000/svg">
<mask id="mask0_360_592" style="mask-type:alpha" maskUnits="userSpaceOnUse" x="0" y="0" width="26" height="26">
<rect width="26" height="26" fill="#D9D9D9"/>
</mask>
<g mask="url(#mask0_360_592)">
<path d="M5.36185 18.4703C4.33268 17.4411 3.54275 16.272 2.99206 14.963C2.44136 13.654 2.16602 12.2773 2.16602 10.8328C2.16602 9.38837 2.44136 8.01163 2.99206 6.7026C3.54275 5.39358 4.33268 4.22448 5.36185 3.19531L6.66185 4.49531C5.81324 5.34392 5.15872 6.31441 4.69831 7.40677C4.23789 8.49913 4.00768 9.64115 4.00768 10.8328C4.00768 12.0245 4.23789 13.1665 4.69831 14.2589C5.15872 15.3512 5.81324 16.3217 6.66185 17.1703L5.36185 18.4703ZM7.85352 15.9786C7.1674 15.2925 6.64379 14.5071 6.28268 13.6224C5.92157 12.7377 5.74102 11.8078 5.74102 10.8328C5.74102 9.85781 5.92157 8.92795 6.28268 8.04323C6.64379 7.15851 7.1674 6.37309 7.85352 5.68698L9.15352 6.98698C8.6299 7.51059 8.2372 8.10191 7.97539 8.76094C7.71358 9.41997 7.58268 10.1106 7.58268 10.8328C7.58268 11.555 7.71358 12.2457 7.97539 12.9047C8.2372 13.5637 8.6299 14.155 9.15352 14.6786L7.85352 15.9786ZM11.916 22.7495V13.3245C11.4285 13.1078 11.0358 12.7738 10.7379 12.3224C10.44 11.871 10.291 11.3745 10.291 10.8328C10.291 10.0745 10.5528 9.43351 11.0764 8.9099C11.6 8.38629 12.241 8.12448 12.9993 8.12448C13.7577 8.12448 14.3987 8.38629 14.9223 8.9099C15.4459 9.43351 15.7077 10.0745 15.7077 10.8328C15.7077 11.3745 15.5587 11.871 15.2608 12.3224C14.9629 12.7738 14.5702 13.1078 14.0827 13.3245V22.7495H11.916ZM18.1452 15.9786L16.8452 14.6786C17.3688 14.155 17.7615 13.5637 18.0233 12.9047C18.2851 12.2457 18.416 11.555 18.416 10.8328C18.416 10.1106 18.2851 9.41997 18.0233 8.76094C17.7615 8.10191 17.3688 7.51059 16.8452 6.98698L18.1452 5.68698C18.8313 6.37309 19.3549 7.15851 19.716 8.04323C20.0771 8.92795 20.2577 9.85781 20.2577 10.8328C20.2577 11.8078 20.0771 12.7377 19.716 13.6224C19.3549 14.5071 18.8313 15.2925 18.1452 15.9786ZM20.6368 18.4703L19.3368 17.1703C20.1855 16.3217 20.84 15.3512 21.3004 14.2589C21.7608 13.1665 21.991 12.0245 21.991 10.8328C21.991 9.64115 21.7608 8.49913 21.3004 7.40677C20.84 6.31441 20.1855 5.34392 19.3368 4.49531L20.6368 3.19531C21.666 4.22448 22.4559 5.39358 23.0066 6.7026C23.5573 8.01163 23.8327 9.38837 23.8327 10.8328C23.8327 12.2773 23.5573 13.654 23.0066 14.963C22.4559 16.272 21.666 17.4411 20.6368 18.4703Z" fill="#512DB4" fill-opacity="0.35"/>
</g>
</svg>
