<svg width="26" height="26" viewBox="0 0 26 26" fill="none" xmlns="http://www.w3.org/2000/svg">
<mask id="mask0_360_4782" style="mask-type:alpha" maskUnits="userSpaceOnUse" x="0" y="0" width="26" height="26">
<rect width="26" height="26" fill="#D9D9D9"/>
</mask>
<g mask="url(#mask0_360_4782)">
<path d="M5.36185 18.4708C4.33268 17.4417 3.54275 16.2726 2.99206 14.9635C2.44136 13.6545 2.16602 12.2778 2.16602 10.8333C2.16602 9.38889 2.44136 8.01215 2.99206 6.70312C3.54275 5.3941 4.33268 4.225 5.36185 3.19583L6.66185 4.49583C5.81324 5.34444 5.15872 6.31493 4.69831 7.40729C4.23789 8.49965 4.00768 9.64167 4.00768 10.8333C4.00768 12.025 4.23789 13.167 4.69831 14.2594C5.15872 15.3517 5.81324 16.3222 6.66185 17.1708L5.36185 18.4708ZM7.85352 15.9792C7.1674 15.2931 6.64379 14.5076 6.28268 13.6229C5.92157 12.7382 5.74102 11.8083 5.74102 10.8333C5.74102 9.85833 5.92157 8.92847 6.28268 8.04375C6.64379 7.15903 7.1674 6.37361 7.85352 5.6875L9.15352 6.9875C8.6299 7.51111 8.2372 8.10243 7.97539 8.76146C7.71358 9.42048 7.58268 10.1111 7.58268 10.8333C7.58268 11.5556 7.71358 12.2462 7.97539 12.9052C8.2372 13.5642 8.6299 14.1556 9.15352 14.6792L7.85352 15.9792ZM11.916 22.75V13.325C11.4285 13.1083 11.0358 12.7743 10.7379 12.3229C10.44 11.8715 10.291 11.375 10.291 10.8333C10.291 10.075 10.5528 9.43403 11.0764 8.91042C11.6 8.3868 12.241 8.125 12.9993 8.125C13.7577 8.125 14.3987 8.3868 14.9223 8.91042C15.4459 9.43403 15.7077 10.075 15.7077 10.8333C15.7077 11.375 15.5587 11.8715 15.2608 12.3229C14.9629 12.7743 14.5702 13.1083 14.0827 13.325V22.75H11.916ZM18.1452 15.9792L16.8452 14.6792C17.3688 14.1556 17.7615 13.5642 18.0233 12.9052C18.2851 12.2462 18.416 11.5556 18.416 10.8333C18.416 10.1111 18.2851 9.42048 18.0233 8.76146C17.7615 8.10243 17.3688 7.51111 16.8452 6.9875L18.1452 5.6875C18.8313 6.37361 19.3549 7.15903 19.716 8.04375C20.0771 8.92847 20.2577 9.85833 20.2577 10.8333C20.2577 11.8083 20.0771 12.7382 19.716 13.6229C19.3549 14.5076 18.8313 15.2931 18.1452 15.9792ZM20.6368 18.4708L19.3368 17.1708C20.1855 16.3222 20.84 15.3517 21.3004 14.2594C21.7608 13.167 21.991 12.025 21.991 10.8333C21.991 9.64167 21.7608 8.49965 21.3004 7.40729C20.84 6.31493 20.1855 5.34444 19.3368 4.49583L20.6368 3.19583C21.666 4.225 22.4559 5.3941 23.0066 6.70312C23.5573 8.01215 23.8327 9.38889 23.8327 10.8333C23.8327 12.2778 23.5573 13.6545 23.0066 14.9635C22.4559 16.2726 21.666 17.4417 20.6368 18.4708Z" fill="#454545" fill-opacity="0.35"/>
</g>
</svg>
