<svg width="26" height="26" viewBox="0 0 26 26" fill="none" xmlns="http://www.w3.org/2000/svg">
<mask id="mask0_377_2842" style="mask-type:alpha" maskUnits="userSpaceOnUse" x="0" y="0" width="26" height="26">
<rect width="26" height="26" fill="#D9D9D9"/>
</mask>
<g mask="url(#mask0_377_2842)">
<path d="M5.79177 21.1253V11.2648L2.60217 13.6774L1.625 12.3815L13 3.79199L17.5208 7.18987V4.87533H20.1665V9.20243L24.3853 12.3815L23.4084 13.6774L20.2188 11.2648V21.1253H14.2085V15.0419H11.7915V21.1253H5.79177ZM7.41677 19.5003H10.1668V13.4171H15.8332V19.5003H18.5938V10.0398L13 5.83976L7.41677 10.0398V19.5003ZM10.9376 10.8505H15.0624C15.0624 10.3073 14.8562 9.8611 14.4438 9.51172C14.0312 9.16253 13.55 8.98793 13 8.98793C12.45 8.98793 11.9688 9.16226 11.5562 9.51091C11.1438 9.85956 10.9376 10.3061 10.9376 10.8505Z" fill="#512DB4" fill-opacity="0.35"/>
</g>
</svg>
