<svg width="26" height="26" viewBox="0 0 26 26" fill="none" xmlns="http://www.w3.org/2000/svg">
<mask id="mask0_360_4764" style="mask-type:alpha" maskUnits="userSpaceOnUse" x="0" y="0" width="26" height="26">
<rect width="26" height="26" fill="#D9D9D9"/>
</mask>
<g mask="url(#mask0_360_4764)">
<path d="M5.79177 21.125V11.2645L2.60217 13.6771L1.625 12.3811L13 3.79166L17.5208 7.18953V4.87499H20.1665V9.2021L24.3853 12.3811L23.4084 13.6771L20.2188 11.2645V21.125H14.2085V15.0415H11.7915V21.125H5.79177ZM7.41677 19.5H10.1668V13.4168H15.8332V19.5H18.5938V10.0395L13 5.83943L7.41677 10.0395V19.5ZM10.9376 10.8501H15.0624C15.0624 10.307 14.8562 9.86076 14.4438 9.51139C14.0312 9.16219 13.55 8.98759 13 8.98759C12.45 8.98759 11.9688 9.16192 11.5562 9.51057C11.1438 9.85923 10.9376 10.3057 10.9376 10.8501Z" fill="#512DB4"/>
</g>
</svg>
