<svg width="20" height="21" viewBox="0 0 20 21" fill="none" xmlns="http://www.w3.org/2000/svg">
<path d="M13.2 10.5C13.2 11.1329 13.0123 11.7516 12.6607 12.2778C12.3091 12.8041 11.8093 13.2142 11.2246 13.4564C10.6399 13.6986 9.99645 13.762 9.37571 13.6385C8.75497 13.515 8.18479 13.2103 7.73726 12.7627C7.28973 12.3152 6.98496 11.745 6.86149 11.1243C6.73801 10.5035 6.80138 9.86014 7.04359 9.27541C7.28579 8.69069 7.69594 8.19092 8.22218 7.8393C8.74841 7.48768 9.3671 7.3 10 7.3C10.8479 7.30264 11.6603 7.64063 12.2598 8.24017C12.8594 8.83972 13.1974 9.65212 13.2 10.5ZM20 6.1V14.9C20 16.3852 19.41 17.8096 18.3598 18.8598C17.3096 19.91 15.8852 20.5 14.4 20.5H5.6C4.11479 20.5 2.69041 19.91 1.6402 18.8598C0.589998 17.8096 0 16.3852 0 14.9V6.1C0 4.61479 0.589998 3.19041 1.6402 2.1402C2.69041 1.09 4.11479 0.5 5.6 0.5H14.4C15.8852 0.5 17.3096 1.09 18.3598 2.1402C19.41 3.19041 20 4.61479 20 6.1ZM14.8 10.5C14.8 9.55065 14.5185 8.62262 13.9911 7.83326C13.4636 7.04391 12.714 6.42868 11.8369 6.06538C10.9598 5.70208 9.99468 5.60702 9.06357 5.79223C8.13246 5.97744 7.27718 6.4346 6.60589 7.10589C5.9346 7.77718 5.47744 8.63246 5.29223 9.56357C5.10702 10.4947 5.20208 11.4598 5.56538 12.3369C5.92868 13.214 6.54391 13.9636 7.33326 14.4911C8.12262 15.0185 9.05065 15.3 10 15.3C11.273 15.3 12.4939 14.7943 13.3941 13.8941C14.2943 12.9939 14.8 11.773 14.8 10.5ZM16.4 5.3C16.4 5.06266 16.3296 4.83066 16.1978 4.63332C16.0659 4.43598 15.8785 4.28217 15.6592 4.19134C15.4399 4.10052 15.1987 4.07676 14.9659 4.12306C14.7331 4.16936 14.5193 4.28365 14.3515 4.45147C14.1837 4.61929 14.0694 4.83311 14.0231 5.06589C13.9768 5.29867 14.0005 5.53995 14.0913 5.75922C14.1822 5.97849 14.336 6.16591 14.5333 6.29776C14.7307 6.42962 14.9627 6.5 15.2 6.5C15.5183 6.5 15.8235 6.37357 16.0485 6.14853C16.2736 5.92348 16.4 5.61826 16.4 5.3Z" fill="white"/>
</svg>
