<svg width="20" height="21" viewBox="0 0 20 21" fill="none" xmlns="http://www.w3.org/2000/svg">
<path d="M17.7778 0.5C18.3671 0.5 18.9324 0.734126 19.3491 1.15087C19.7659 1.56762 20 2.13285 20 2.72222V18.2778C20 18.8671 19.7659 19.4324 19.3491 19.8491C18.9324 20.2659 18.3671 20.5 17.7778 20.5H2.22222C1.63285 20.5 1.06762 20.2659 0.650874 19.8491C0.234126 19.4324 0 18.8671 0 18.2778V2.72222C0 2.13285 0.234126 1.56762 0.650874 1.15087C1.06762 0.734126 1.63285 0.5 2.22222 0.5H17.7778ZM17.2222 17.7222V11.8333C17.2222 10.8727 16.8406 9.95133 16.1613 9.27204C15.482 8.59274 14.5607 8.21111 13.6 8.21111C12.6556 8.21111 11.5556 8.78889 11.0222 9.65556V8.42222H7.92222V17.7222H11.0222V12.2444C11.0222 11.3889 11.7111 10.6889 12.5667 10.6889C12.9792 10.6889 13.3749 10.8528 13.6666 11.1445C13.9583 11.4362 14.1222 11.8319 14.1222 12.2444V17.7222H17.2222ZM4.31111 6.67778C4.80618 6.67778 5.28098 6.48111 5.63104 6.13104C5.98111 5.78098 6.17778 5.30618 6.17778 4.81111C6.17778 3.77778 5.34444 2.93333 4.31111 2.93333C3.81309 2.93333 3.33547 3.13117 2.98332 3.48332C2.63117 3.83547 2.43333 4.31309 2.43333 4.81111C2.43333 5.84444 3.27778 6.67778 4.31111 6.67778ZM5.85556 17.7222V8.42222H2.77778V17.7222H5.85556Z" fill="white"/>
</svg>
