<svg width="44" height="31" viewBox="0 0 44 31" fill="none" xmlns="http://www.w3.org/2000/svg">
<path d="M12.465 15.0401L17.7213 21.7983C17.6212 24.2011 16.62 26.3037 14.7177 28.1058C12.8154 29.908 10.6127 30.8091 8.10974 30.8091C5.60673 30.8091 3.62936 29.9581 2.17761 28.256C0.725871 26.554 0 24.5265 0 22.1737C0 16.9675 1.7521 12.3619 5.25631 8.35712C8.76052 4.30225 13.4411 1.6741 19.2982 0.472656L20.4245 3.77662C18.0717 4.87794 16.1444 6.55496 14.6426 8.80766C13.1908 11.0103 12.465 13.0878 12.465 15.0401ZM35.2924 15.0401L40.5487 21.7983C40.4486 24.2011 39.4474 26.3037 37.5451 28.1058C35.6428 29.908 33.4401 30.8091 30.9371 30.8091C28.4341 30.8091 26.4568 29.9581 25.005 28.256C23.5533 26.554 22.8274 24.5265 22.8274 22.1737C22.8274 16.9675 24.5795 12.3619 28.0837 8.35712C31.5879 4.30225 36.2685 1.6741 42.1256 0.472656L43.2519 3.77662C40.8991 4.87794 38.9718 6.55496 37.47 8.80766C36.0182 11.0103 35.2924 13.0878 35.2924 15.0401Z" fill="#F7A866"/>
</svg>
